# xmcd
#
# Track frame offsets:
#	151
#	11957
#	25721
#	39314
#	53749
#	66800
#	80766
#	95439
#	109240
#	121463
#	134617
#	146836
#	160318
#	173876
#	186477
#	199589
#	217821
#	232177
#	245194
#	257801
#
# Disc length: 3633 seconds
#
# Revision: 0
# Processed by: cddbd v1.4PL0 Copyright (c) Steve Scherf et al.
# Submitted via: dBpowerAMP V4.0
#
DISCID=2e0e2f14
DTITLE=Los Embajadores Criollos - Exitos solo Exitos
DYEAR=1900
DGENRE=Latin
TTITLE0=Los Embajadores Criollos  -  Alma,Corazon y Vida
TTITLE1=Los Embajadores Criollos  -  El Tisico
TTITLE2=Los Embajadores Criollos  -  El Rosario de Mi Madre
TTITLE3=Los Embajadores criollos  -  Tu Culpa
TTITLE4=Los Embajadores Criollos  -  Mujer interesada
TTITLE5=Los Embajadores Criollos  -  Zenobia
TTITLE6=Los Embajadores Criollos  -  Alma De Mi Alma
TTITLE7=Los Embajadores Criollos  -  Lucy Smith
TTITLE8=Los Embajadores Criollos  -  Clavel Marchito
TTITLE9=Los Embajadores Criollos  -  Ventanita
TTITLE10=Los Embajadores Criollos  -  Dejalos
TTITLE11=Los Embajadores Criollos  -  Lejano Amor
TTITLE12=Los Embajadores Criollos  -  Nunca Podran
TTITLE13=Los Embajadores Criollos  -  Odiame
TTITLE14=Los Embajadores Criollos  -  Vibora
TTITLE15=Los Embajadores Criollos  -  La Rosa del Pantano
TTITLE16=Los Embajadores Criollos  -  Ilusion Perdida
TTITLE17=Los Embajadores Criollos  -  Alicia
TTITLE18=Los Embajadores Criollos  -  Amor de Madre
TTITLE19=Los Embajadores Criollos  -  Yolanda
EXTD=
EXTT0=
EXTT1=
EXTT2=
EXTT3=
EXTT4=
EXTT5=
EXTT6=
EXTT7=
EXTT8=
EXTT9=
EXTT10=
EXTT11=
EXTT12=
EXTT13=
EXTT14=
EXTT15=
EXTT16=
EXTT17=
EXTT18=
EXTT19=
PLAYORDER=
